<svg width="135" height="148" viewBox="0 0 135 148" fill="none" xmlns="http://www.w3.org/2000/svg">
<path d="M5.73913 0C4.21702 0 2.75725 0.649702 1.68095 1.80618C0.604658 2.96265 0 4.53116 0 6.16667C0 7.80217 0.604658 9.37068 1.68095 10.5272C2.75725 11.6836 4.21702 12.3333 5.73913 12.3333H8.56278C9.80899 12.3356 11.0206 12.7738 12.0146 13.5815C13.0086 14.3891 13.7309 15.5225 14.0723 16.8103L32.2769 85.2603C33.3065 89.1232 35.4786 92.5208 38.4648 94.9396C41.451 97.3583 45.0889 98.6666 48.8285 98.6667H101.273C104.714 98.6673 108.077 97.5596 110.927 95.4865C113.777 93.4134 115.984 90.47 117.262 87.0363L134.181 41.5757C134.876 39.705 135.135 37.6798 134.934 35.677C134.733 33.6742 134.078 31.7548 133.027 30.0867C131.976 28.4185 130.561 27.0523 128.905 26.1074C127.25 25.1626 125.404 24.6679 123.529 24.6667H28.0988L25.1029 13.4187C24.0759 9.55553 21.9064 6.15663 18.9224 3.73572C15.9383 1.31482 12.3019 0.00350721 8.56278 0H5.73913ZM43.3189 81.8563L31.3816 37H123.529L106.599 82.4607C106.172 83.6038 105.437 84.5836 104.488 85.2738C103.539 85.964 102.419 86.333 101.273 86.3333H48.8285C47.5823 86.331 46.3707 85.8929 45.3767 85.0852C44.3827 84.2775 43.6604 83.1441 43.3189 81.8563ZM51.6522 148C53.9132 148 56.1521 147.521 58.241 146.592C60.3299 145.662 62.2279 144.299 63.8267 142.581C65.4255 140.864 66.6937 138.824 67.559 136.58C68.4242 134.335 68.8695 131.929 68.8695 129.5C68.8695 127.071 68.4242 124.665 67.559 122.42C66.6937 120.176 65.4255 118.136 63.8267 116.419C62.2279 114.701 60.3299 113.338 58.241 112.408C56.1521 111.479 53.9132 111 51.6522 111C47.0858 111 42.7065 112.949 39.4776 116.419C36.2487 119.888 34.4348 124.593 34.4348 129.5C34.4348 134.406 36.2487 139.112 39.4776 142.581C42.7065 146.051 47.0858 148 51.6522 148ZM51.6522 135.667C50.13 135.667 48.6703 135.017 47.594 133.86C46.5177 132.704 45.913 131.135 45.913 129.5C45.913 127.864 46.5177 126.296 47.594 125.139C48.6703 123.983 50.13 123.333 51.6522 123.333C53.1743 123.333 54.634 123.983 55.7103 125.139C56.7866 126.296 57.3913 127.864 57.3913 129.5C57.3913 131.135 56.7866 132.704 55.7103 133.86C54.634 135.017 53.1743 135.667 51.6522 135.667ZM97.5652 148C99.8262 148 102.065 147.521 104.154 146.592C106.243 145.662 108.141 144.299 109.74 142.581C111.339 140.864 112.607 138.824 113.472 136.58C114.337 134.335 114.783 131.929 114.783 129.5C114.783 127.071 114.337 124.665 113.472 122.42C112.607 120.176 111.339 118.136 109.74 116.419C108.141 114.701 106.243 113.338 104.154 112.408C102.065 111.479 99.8262 111 97.5652 111C92.9989 111 88.6195 112.949 85.3907 116.419C82.1618 119.888 80.3478 124.593 80.3478 129.5C80.3478 134.406 82.1618 139.112 85.3907 142.581C88.6195 146.051 92.9989 148 97.5652 148ZM97.5652 135.667C96.0431 135.667 94.5833 135.017 93.507 133.86C92.4307 132.704 91.8261 131.135 91.8261 129.5C91.8261 127.864 92.4307 126.296 93.507 125.139C94.5833 123.983 96.0431 123.333 97.5652 123.333C99.0873 123.333 100.547 123.983 101.623 125.139C102.7 126.296 103.304 127.864 103.304 129.5C103.304 131.135 102.7 132.704 101.623 133.86C100.547 135.017 99.0873 135.667 97.5652 135.667Z" fill="#3B8253"/>
</svg>
