<svg width="121" height="133" viewBox="0 0 121 133" fill="none" xmlns="http://www.w3.org/2000/svg">
<path d="M5.1123 0C3.75643 0 2.4561 0.58112 1.49736 1.61552C0.538616 2.64992 0 4.05286 0 5.51573C0 6.97859 0.538616 8.38153 1.49736 9.41593C2.4561 10.4503 3.75643 11.0315 5.1123 11.0315H7.62755C8.73764 11.0335 9.81695 11.4254 10.7024 12.1478C11.5878 12.8703 12.2312 13.884 12.5354 15.0359L28.7516 76.2604C29.6687 79.7155 31.6036 82.7545 34.2637 84.918C36.9237 87.0814 40.1643 88.2516 43.4954 88.2516H90.2116C93.2774 88.2522 96.273 87.2614 98.8118 85.4071C101.351 83.5528 103.316 80.9202 104.454 77.849L119.525 37.187C120.145 35.5138 120.375 33.7024 120.196 31.911C120.017 30.1196 119.434 28.4029 118.498 26.9108C117.562 25.4187 116.301 24.1967 114.826 23.3516C113.351 22.5065 111.707 22.064 110.037 22.0629H25.0298L22.3612 12.0022C21.4463 8.54687 19.5138 5.50675 16.8557 3.34139C14.1975 1.17603 10.9583 0.00313699 7.62755 0H5.1123ZM38.5876 73.2158L27.954 33.0944H110.037L94.9558 73.7563C94.576 74.7788 93.9212 75.6551 93.0756 76.2725C92.2301 76.8898 91.2326 77.2199 90.2116 77.2202H43.4954C42.3853 77.2181 41.306 76.8262 40.4206 76.1038C39.5352 75.3814 38.8918 74.3676 38.5876 73.2158ZM46.0107 132.377C48.0247 132.377 50.0191 131.949 51.8798 131.118C53.7406 130.286 55.4313 129.067 56.8555 127.531C58.2797 125.994 59.4094 124.17 60.1801 122.163C60.9509 120.155 61.3476 118.003 61.3476 115.83C61.3476 113.657 60.9509 111.506 60.1801 109.498C59.4094 107.49 58.2797 105.666 56.8555 104.13C55.4313 102.593 53.7406 101.374 51.8798 100.543C50.0191 99.7111 48.0247 99.2831 46.0107 99.2831C41.9431 99.2831 38.0421 101.026 35.1659 104.13C32.2896 107.233 30.6738 111.442 30.6738 115.83C30.6738 120.219 32.2896 124.428 35.1659 127.531C38.0421 130.634 41.9431 132.377 46.0107 132.377ZM46.0107 121.346C44.6548 121.346 43.3545 120.765 42.3957 119.73C41.437 118.696 40.8984 117.293 40.8984 115.83C40.8984 114.367 41.437 112.964 42.3957 111.93C43.3545 110.896 44.6548 110.315 46.0107 110.315C47.3665 110.315 48.6669 110.896 49.6256 111.93C50.5844 112.964 51.123 114.367 51.123 115.83C51.123 117.293 50.5844 118.696 49.6256 119.73C48.6669 120.765 47.3665 121.346 46.0107 121.346ZM86.909 132.377C88.9231 132.377 90.9175 131.949 92.7782 131.118C94.639 130.286 96.3297 129.067 97.7539 127.531C99.178 125.994 100.308 124.17 101.078 122.163C101.849 120.155 102.246 118.003 102.246 115.83C102.246 113.657 101.849 111.506 101.078 109.498C100.308 107.49 99.178 105.666 97.7539 104.13C96.3297 102.593 94.639 101.374 92.7782 100.543C90.9175 99.7111 88.9231 99.2831 86.909 99.2831C82.8415 99.2831 78.9405 101.026 76.0642 104.13C73.188 107.233 71.5722 111.442 71.5722 115.83C71.5722 120.219 73.188 124.428 76.0642 127.531C78.9405 130.634 82.8415 132.377 86.909 132.377ZM86.909 121.346C85.5532 121.346 84.2529 120.765 83.2941 119.73C82.3354 118.696 81.7968 117.293 81.7968 115.83C81.7968 114.367 82.3354 112.964 83.2941 111.93C84.2529 110.896 85.5532 110.315 86.909 110.315C88.2649 110.315 89.5653 110.896 90.524 111.93C91.4827 112.964 92.0213 114.367 92.0213 115.83C92.0213 117.293 91.4827 118.696 90.524 119.73C89.5653 120.765 88.2649 121.346 86.909 121.346Z" fill="#3B8253"/>
</svg>
